<svg xmlns="http://www.w3.org/2000/svg" width="55" height="19" viewBox="0 0 55 19" fill="none">
    <g clip-path="url(#clip0_16_215)">
        <path d="M5.90083 4.80625C4.37849 4.80625 3.45023 5.58807 2.94897 6.44261H2.91184V1.40625H-0.0585938V14.4063H2.91184V9.02443C2.91184 7.73352 3.69157 7.16989 4.6384 7.16989C5.71518 7.16989 6.17931 7.64261 6.17931 9.04261V14.4063H9.14974V8.11534C9.14974 5.98807 7.90587 4.80625 5.90083 4.80625Z" fill="#E0E0E0"/>
        <path d="M40.4699 5.1044V6.03349H40.434C40.0753 5.54162 39.2681 4.81292 37.9228 4.81292C35.5731 4.81292 34.0664 6.70754 34.0664 9.40373C34.0664 12.0999 35.5731 13.9945 37.9228 13.9945C39.2681 13.9945 40.0753 13.2658 40.434 12.774H40.4699V13.3205C40.4699 14.869 40.0394 15.5612 38.7479 15.5612C37.7435 15.5612 37.2951 15.1422 37.1157 14.6321H34.2458C34.5686 16.126 35.9139 17.6562 38.8197 17.6562C41.5999 17.6562 43.3398 16.5996 43.3398 13.5209V5.1044H40.4699ZM38.6762 11.8084C37.5103 11.8084 36.9363 10.9158 36.9363 9.40373C36.9363 7.89168 37.5103 6.99902 38.6762 6.99902C39.8421 6.99902 40.4161 7.89168 40.4161 9.40373C40.4161 10.9158 39.8421 11.8084 38.6762 11.8084Z" fill="#E0E0E0"/>
        <path d="M46.1786 3.99313C46.9858 3.99313 47.6136 3.55591 47.6136 2.69969C47.6136 1.86169 46.9858 1.40625 46.1786 1.40625C45.3714 1.40625 44.7436 1.86169 44.7436 2.69969C44.7436 3.55591 45.3714 3.99313 46.1786 3.99313ZM44.7436 5.1044V14.4318H47.6136V5.1044H44.7436Z" fill="#E0E0E0"/>
        <path d="M50.4168 14.5957C51.2598 14.5957 51.9414 13.9945 51.9414 13.0472C51.9414 12.1181 51.2598 11.4987 50.4168 11.4987C49.5558 11.4987 48.8921 12.1181 48.8921 13.0472C48.8921 13.9945 49.5558 14.5957 50.4168 14.5957Z" fill="#E0E0E0"/>
        <rect x="10.7744" y="4.98047" width="21.6667" height="8.66667" rx="4.33333" fill="#E0E0E0"/>
    </g>
    <defs>
        <clipPath id="clip0_16_215">
            <rect width="55" height="18" fill="white" transform="translate(0 0.5)"/>
        </clipPath>
    </defs>
</svg>