<svg xmlns="http://www.w3.org/2000/svg" width="56" height="39" viewBox="0 0 56 39" fill="none">
    <path d="M37.6446 38.8506C37.5426 38.9502 37.3896 39 37.1856 39C36.8797 39 36.6248 38.8008 36.4208 38.4023C36.2169 38.0038 36.2679 37.705 36.5738 37.5057C42.9982 31.3295 46.8733 24.8046 48.199 17.931C48.5049 16.4368 48.6577 15.1418 48.6577 14.046C48.6577 11.6552 48.0969 10.0613 46.9752 9.26436L51.4111 7.47126C51.6151 11.3563 49.8306 13.2988 46.0575 13.2988C44.018 13.2988 42.3863 12.7011 41.1626 11.5057C40.0409 10.2107 39.4801 8.66666 39.4801 6.87356C39.4801 4.78161 40.1429 3.13793 41.4685 1.94252C42.7942 0.647507 44.7317 0 47.2811 0C50.0344 0 52.1758 0.846741 53.7055 2.54022C55.2351 4.23371 55.9999 6.62452 55.9999 9.71264C55.9999 19.9732 49.8815 29.6858 37.6446 38.8506Z" fill="#E5CAA9"/>
    <path d="M1.3461 38.8506C1.24412 38.9502 1.09112 39 0.887173 39C0.58125 39 0.326296 38.8008 0.122348 38.4023C-0.0816016 38.0038 -0.030552 37.705 0.275371 37.5057C6.69976 31.3295 10.5748 24.8046 11.9005 17.931C12.2064 16.4368 12.3593 15.1418 12.3593 14.046C12.3593 11.6552 11.7985 10.0613 10.6767 9.26436L15.1127 7.47126C15.3166 11.3563 13.5321 13.2988 9.75904 13.2988C7.71955 13.2988 6.08787 12.7011 4.86418 11.5057C3.74246 10.2107 3.18165 8.66666 3.18165 6.87356C3.18165 4.78161 3.84441 3.13793 5.17008 1.94252C6.49575 0.647507 8.43328 0 10.9826 0C13.736 0 15.8774 0.846741 17.407 2.54022C18.9366 4.23371 19.7015 6.62452 19.7015 9.71264C19.7015 19.9732 13.583 29.6858 1.3461 38.8506Z" fill="#E5CAA9"/>
</svg>