<svg xmlns="http://www.w3.org/2000/svg" width="57" height="40" viewBox="0 0 57 40" fill="none">
    <path d="M18.3908 0.153255C18.493 0.0510864 18.6463 0 18.8506 0C19.1571 0 19.4126 0.204338 19.6169 0.613022C19.8212 1.02171 19.7701 1.32822 19.4636 1.53257C13.0268 7.86718 9.14426 14.5594 7.81603 21.6092C7.50952 23.1418 7.35637 24.47 7.35637 25.5939C7.35637 28.046 7.91826 29.6807 9.04214 30.4981L4.59766 32.3372C4.39331 28.3525 6.18128 26.3602 9.96162 26.3602C12.005 26.3602 13.6399 26.9732 14.8659 28.1992C15.9898 29.5275 16.5517 31.1111 16.5517 32.9502C16.5517 35.0958 15.8877 36.7816 14.5594 38.0077C13.2312 39.3359 11.2899 40 8.73565 40C5.97703 40 3.83147 39.1315 2.2989 37.3946C0.766331 35.6577 -5.72205e-06 33.2056 -5.72205e-06 30.0383C-5.72205e-06 19.5147 6.13025 9.553 18.3908 0.153255Z" fill="#E5CAA9"/>
    <path d="M54.7593 0.153255C54.8615 0.0510864 55.0148 0 55.2191 0C55.5256 0 55.7811 0.204338 55.9854 0.613022C56.1898 1.02171 56.1386 1.32822 55.8321 1.53257C49.3953 7.86718 45.5128 14.5594 44.1846 21.6092C43.8781 23.1418 43.7249 24.47 43.7249 25.5939C43.7249 28.046 44.2868 29.6807 45.4107 30.4981L40.9662 32.3372C40.7619 28.3525 42.5498 26.3602 46.3302 26.3602C48.3736 26.3602 50.0084 26.9732 51.2345 28.1992C52.3583 29.5275 52.9202 31.1111 52.9202 32.9502C52.9202 35.0958 52.2562 36.7816 50.928 38.0077C49.5997 39.3359 47.6585 40 45.1042 40C42.3456 40 40.2 39.1315 38.6674 37.3946C37.1349 35.6577 36.3685 33.2056 36.3685 30.0383C36.3685 19.5147 42.4988 9.553 54.7593 0.153255Z" fill="#E5CAA9"/>
</svg>