<svg width="24" height="24" viewBox="0 0 24 24" fill="none" xmlns="http://www.w3.org/2000/svg">
<path d="M3.92089 18.9183C4.17115 19.985 4.43974 20.4267 5.88263 20.1974C6.30247 20.1298 6.82683 20.0454 7.47218 20.1485C8.54289 20.3209 11.3737 23.8178 15.3989 20.7334C16.1845 20.2001 16.6135 19.905 18.138 20.1947C18.8035 20.3201 19.657 20.1876 20.0741 18.9183C24.0516 18.2241 23.1973 16.097 22.0055 15.9113C19.9338 15.5833 18.5597 13.5095 18.413 12.8482C18.5588 12.7611 18.8778 12.6536 19.0813 12.586C22.441 11.4589 20.5709 8.71587 18.2865 9.56208C18.4359 7.25102 18.479 5.3995 16.5292 3.62443C14.4565 1.74359 11.2545 1.65737 9.1635 2.54713C5.5187 4.09198 5.54711 7.0848 5.70937 9.59763C4.2564 9.05898 3.27095 9.83496 3.11236 10.6305C2.87218 11.8847 4.1079 12.306 4.84492 12.5576C5.10251 12.6456 5.53245 12.7922 5.59753 12.8393C5.51778 12.9291 5.05576 14.9211 2.31941 15.801C1.7969 15.969 1.30279 16.1281 1.08829 16.5921C0.960865 16.8695 0.970949 17.1806 1.12129 17.5157C1.49072 18.3477 2.69159 18.705 3.92089 18.9183ZM6.77641 13.57C7.38143 12.3878 6.58757 11.7434 5.30235 11.3043C5.03101 11.2118 4.52683 11.0394 4.46082 10.8812C4.48374 10.8252 4.66433 10.7132 4.83575 10.7132C4.88892 10.7167 5.0411 10.7736 5.14193 10.81C9.48892 12.4065 4.35999 6.03327 9.71443 3.76488C11.3544 3.068 13.9707 3.12311 15.5896 4.59419C18.1847 6.95503 16.1432 10.4021 17.269 10.8989C18.0702 11.2518 18.8365 10.7087 19.1134 10.7007C19.3288 10.7007 19.5167 10.8252 19.5369 10.8696C19.5405 11.0269 18.9731 11.2172 18.6339 11.3309C17.0664 11.8562 16.5768 12.4856 17.4633 14.0526C18.1316 15.2348 19.5451 16.7059 21.417 17.1521C20.1034 17.8881 19.106 17.2401 18.8145 18.353C18.6642 18.9441 18.5679 18.9236 18.402 18.8925C13.758 18.0108 14.0752 22.688 9.35508 19.6312C7.74444 18.5885 7.43002 18.6996 5.33536 18.9343C5.24735 18.5992 5.19052 18.2365 5.0686 18.0179C4.73767 17.4241 3.51296 17.7246 2.55317 17.1281C4.47916 16.489 5.78179 15.737 6.77641 13.57Z" fill="#FBF8F5"/>
</svg>
