<svg width="18" height="20" viewBox="0 0 18 20" fill="none" xmlns="http://www.w3.org/2000/svg">
<path d="M17.7758 5.00762C16.6326 5.00762 15.5779 4.62892 14.7309 3.99006C13.7595 3.25769 13.0616 2.1834 12.8151 0.945189C12.7541 0.639255 12.7212 0.323539 12.7181 0H9.45256V8.92296L9.44865 13.8105C9.44865 15.1172 8.59774 16.2251 7.41821 16.6147C7.07589 16.7278 6.70619 16.7814 6.32123 16.7603C5.82986 16.7333 5.36939 16.585 4.96917 16.3456C4.11748 15.8362 3.54004 14.9122 3.52439 13.8551C3.49975 12.203 4.83537 10.856 6.48632 10.856C6.81221 10.856 7.12519 10.9092 7.41821 11.0058V8.56695V7.69022C7.10915 7.64445 6.79461 7.62059 6.47654 7.62059C4.6695 7.62059 2.97942 8.37173 1.77133 9.72496C0.858224 10.7476 0.310515 12.0523 0.226011 13.4204C0.115296 15.2177 0.772938 16.9262 2.04832 18.1867C2.23571 18.3717 2.4325 18.5435 2.63828 18.7019C3.73174 19.5434 5.06854 19.9996 6.47654 19.9996C6.79461 19.9996 7.10915 19.9761 7.41821 19.9303C8.7335 19.7355 9.94706 19.1334 10.9048 18.1867C12.0816 17.0236 12.7318 15.4794 12.7388 13.8359L12.722 6.5373C13.2834 6.97038 13.8972 7.32874 14.556 7.60689C15.5806 8.03919 16.6671 8.25828 17.7852 8.25788V5.8867V5.00684C17.7859 5.00762 17.7766 5.00762 17.7758 5.00762Z" fill="#FBF8F5"/>
</svg>
